<?xml version="1.0" encoding="utf-8"?>
<!-- Generator: Adobe Illustrator 24.2.1, SVG Export Plug-In . SVG Version: 6.00 Build 0)  -->
<svg version="1.1" id="Capa_1" xmlns="http://www.w3.org/2000/svg" xmlns:xlink="http://www.w3.org/1999/xlink" x="0px" y="0px"
	 viewBox="0 0 243.5 43.9" style="enable-background:new 0 0 243.5 43.9;" xml:space="preserve">
<style type="text/css">
	.st0{fill:#FFFFFF;}
</style>
<path class="st0" d="M60.1,34.1c-1.6-1.7-2.4-6.3-2.4-11.4c0-1,0-2,0.1-3c-2.8,1.6-6.1,2.2-9.7,2.2c-8.7,0-19.4-3.5-27.2-3.5
	c-3.7,0-25.4,1-27.4,3.3C-6.7,21.9-6.9,22-7.1,22c-0.3,0-0.6-0.3-0.6-0.6c0-0.2,0.1-0.4,0.3-0.7c2-2.3,24.4-2.9,28.1-2.9
	c7.9,0,18.6,3.5,27.3,3.5c3.7,0,7.1-0.6,9.8-2.4c0.4-5.8,1.8-11.5,4-13.5c0.6-0.6,2.1-0.9,3.1-0.9h0.6c1.8,0.1,2.3,1.7,2.3,3.2
	c0,0.5,0,1-0.1,1.4c-0.6,3.7-3.4,8.5-6.7,9.4c-0.1,1.7-0.2,3.5-0.2,5.2h0.6c3.2,0,6.9-1.9,8.7-3.6l0.2-0.1c0.2,0,0.3,0.2,0.3,0.3
	c0,0.1,0,0.2-0.1,0.2c-1.9,1.7-5.7,3.7-9,3.7c1.9,1.6,2.7,4.3,2.7,6.4c0,1.9-0.6,3.5-1.7,3.8c-0.4,0.1-0.7,0.2-1,0.2
	C61,34.9,60.6,34.7,60.1,34.1z M63.7,30.9c0-2.1-0.8-4.7-2.8-6.2c0.1,4.4,0.6,9.2,1.6,9.4C63.2,33.8,63.7,32.5,63.7,30.9z M67.2,7.8
	c0-1.6-0.6-2.7-1.9-2.7c-3,0.1-4,10.3-4.2,12.8C64.5,16.8,67.2,11.2,67.2,7.8z"/>
<path class="st0" d="M76.9,32.5c-1.1-0.5-1.3-3.5-1.3-6.3c0-2,0.1-3.8,0.2-4.7c-0.9,2.9-2.2,6.5-3.2,7c-0.3,0.1-0.5,0.2-0.8,0.2
	c-0.4,0-0.9-0.1-1-0.2C70,28,69.9,26,69.9,23.9s0.2-4.1,0.2-4.4c0.1-0.8,0.8-1,1.4-1c1,0,1.2,0.5,1.2,1.2v0.8
	c-0.1,0.6-0.4,4.3-0.4,6.3c0,0.6,0,1.1,0.1,1.3c1.2-0.9,2.9-7,3.7-9.5c0.2-0.5,0.6-0.8,1.1-0.8h0.3c0.6,0.1,1.1,0.4,1.1,1v-0.1
	c-0.2,1.1-0.6,6.9-0.6,10.5c0,1.5,0.1,2.5,0.3,2.7c1.7-0.1,3.8-7.2,4.7-10.2l0.4-1.3c0-0.1,0.2-0.2,0.3-0.2h0.2
	c0.1,0.1,0.1,0.2,0.1,0.3v0.2c-0.1,0.2-0.2,0.6-0.4,1.3c-1,3.1-3.2,10.5-5.4,10.6h-0.5C77.5,32.6,77.2,32.6,76.9,32.5z"/>
<path class="st0" d="M85.1,28.5c-1.5-0.5-1.8-3.4-1.8-5.8c0-1.6,0.1-3,0.2-3.4c0-0.7,0.7-1,1.4-1h0.2c0.6,0,1.3,0.3,1.3,0.9l0,0
	c0,0.8-0.3,3.6-0.3,5.8c0,1.6,0.2,3,0.9,3c1.6,0,2.9-5.1,3.8-7.5c0-0.1,0.2-0.2,0.3-0.2h0.2c0.1,0,0.1,0.2,0.1,0.3v0.1
	c-0.9,2.7-2.2,7.8-4.4,7.9h-0.6C85.8,28.6,85.4,28.6,85.1,28.5z M84,15.5c0-0.3,0.1-0.6,0.3-0.8c0.2-0.2,0.5-0.3,0.8-0.3
	s0.6,0.1,0.8,0.3c0.2,0.2,0.3,0.5,0.3,0.8c0,0.6-0.5,1.1-1.1,1.1S84,16.1,84,15.5z"/>
<path class="st0" d="M90.9,32.7c0.1-2.8,2.5-4,5-4h0.5c0-1.3-0.3-2.1-1.2-3.2c-1.4-1.9-3.9-2.8-4.6-4.8c-0.1-0.3-0.1-0.6-0.1-0.9
	c0-2,2-3.8,4.1-3.8c1.5,0.1,2.5,0.6,2.5,1.9c0,0.7-0.4,1.6-1,1.6c-0.3,0-0.6-0.1-0.6-0.6v-0.2c0.2-0.6,0.9-0.2,0.9-0.8
	c0-0.9-0.9-1.3-1.9-1.3c-1.1,0-2.2,0.6-2.2,1.9c0,2.1,2.8,3.1,4.8,5.3c1.1,1.4,1.7,2.7,1.7,4.4l-0.1,1c3.2,1.2,5.2,3.1,9.7,3.1
	c3.8,0,8.5-1.5,13.2-4.4c-4.7-3.5-9.6-8.8-9.6-14.5c0-0.9,0.1-1.9,0.4-2.9c0.8-2.5,3-3.9,5.2-3.9c2.4,0,4.9,1.6,5.8,5.5
	c1.3-3.6,3.7-5.2,6-5.2c2,0,3.8,1.3,4.4,3.5c0.2,0.7,0.3,1.4,0.3,2.1c0,6.2-6.6,12.5-11.3,15.4c3.6,2.5,8.1,4.3,12.5,4.3
	c7.6-0.3,13.2-5.2,16.7-11.8c0.1-0.1,0.2-0.2,0.3-0.2c0.2,0,0.3,0.1,0.3,0.3v0.2c-3.2,6-9,11.6-16,12.1h-1.3c-4.6,0-9.2-1.9-13-4.5
	c-5,3.1-10,4.6-14,4.6c-4.8,0-7-2.2-9.6-3.1c-0.6,3.1-2.5,5.4-5,5.6C92,35.4,90.9,34.2,90.9,32.7z M96.3,29.4h-0.6
	c-2.1,0-4.1,0.9-4.2,3.5c0,1.2,0.9,1.9,2,1.9C95.4,34.7,96.3,31.3,96.3,29.4z M132.6,13c0-0.6,0-1.3-0.2-1.9c-0.4-2-1.8-3.2-3.5-3.2
	c-1.9,0-4.1,1.6-5.3,5.4c0,0.1-0.2,0.2-0.3,0.2s-0.3-0.1-0.3-0.3c-0.9-3.9-3.1-5.6-5.2-5.6c-1.8,0-3.4,1.2-4.1,3.3
	c-0.3,0.9-0.4,1.8-0.4,2.7c0,5.2,4.2,10.7,8.8,13.9C126.9,24.5,132.6,19.1,132.6,13z"/>
<path class="st0" d="M153.5,31.9c-1.2-1.9-1.7-6-1.7-10.4c0-7,1.3-15,3.8-16.7c0.6-0.4,1.6-0.6,2.5-0.6h0.7c1.6,0.2,2.3,1.6,2.3,3.4
	c0,0.6,0,1.1-0.2,1.8c-0.6,3.8-3.2,8.5-6.1,10.5v1.2c0,3.1,0.2,10.7,1.3,11.1c2.3-0.5,5.2-8.8,6.9-11.7c0.1-0.1,0.2-0.2,0.3-0.2
	c0,0,0.1,0,0.2,0c0.1,0,0.1,0.1,0.1,0.3c0,0,0,0.1,0,0.2c-1.7,3-4.6,11.4-7.2,12c-0.2,0-0.5,0.1-0.7,0.1
	C154.8,32.8,153.9,32.6,153.5,31.9z M160.2,9.2c0.1-0.6,0.2-1.1,0.2-1.6c0-1.5-0.5-2.6-1.8-2.7h-0.1c-1.6,0-2.6,3.8-3.2,8
	c-0.3,1.9-0.5,4.1-0.6,6.3C157.4,17,159.6,12.6,160.2,9.2z"/>
<path class="st0" d="M169.8,32.5c-1.1-0.5-1.3-3.5-1.3-6.3c0-2,0.1-3.8,0.2-4.7c-0.9,2.9-2.2,6.5-3.2,7c-0.2,0.1-0.5,0.1-0.7,0.1
	c-0.4,0-0.9-0.1-1-0.2c-0.8-0.5-0.9-2.5-0.9-4.6s0.2-4.1,0.2-4.4c0.1-0.8,0.8-1,1.4-1c1,0,1.2,0.5,1.2,1.2v0.8
	c-0.1,0.6-0.4,4.3-0.4,6.3c0,0.6,0,1.1,0.1,1.3c1.2-0.9,2.9-7,3.7-9.5c0.2-0.5,0.6-0.8,1.1-0.8h0.3c0.6,0.1,1.1,0.4,1.1,1l0,0
	c-0.2,1.1-0.6,6.9-0.6,10.5c0,1.5,0.1,2.5,0.3,2.7c1.7-0.1,3.8-7.2,4.7-10.2l0.4-1.3c0-0.1,0.2-0.2,0.3-0.2h0.2
	c0.1,0.1,0.1,0.2,0.1,0.3v0.2c-0.1,0.2-0.2,0.6-0.4,1.3c-1,3.1-3.2,10.5-5.4,10.6h-0.5C170.4,32.6,170,32.6,169.8,32.5z"/>
<path class="st0" d="M178.8,32c-2.5-0.6-3.2-3.9-3.2-6.8c0-0.9,0.1-1.8,0.2-2.5c0.6-3.6,2.2-6.9,4.7-6.9h0.3c1,0.1,1.9,0.9,1.9,2V18
	c0,0.3-0.1,0.6-0.3,1.1c-0.1,0.2-0.3,0.4-0.6,0.4l-0.3-0.1c-0.2-0.1-0.3-0.3-0.3-0.5c0-0.1,0-0.2,0-0.3c0.2-0.4,0.6-0.3,0.7-0.6
	v-0.3c0-0.5-0.4-0.9-0.8-1.2l0,0c-1,0-2.2,5.7-2.3,6.7c-0.1,0.6-0.3,2.4-0.3,4.1c0,2,0.3,3.9,1.3,3.9c3.2,0,5.7-9.7,6.5-11
	c0.1-0.1,0.2-0.1,0.3-0.1s0.2,0,0.2,0.1c0,0,0.1,0.1,0.1,0.2s0,0.1,0,0.2c-0.7,1.2-3.2,10.8-6.7,11.3c-0.2,0-0.5,0-0.7,0
	S179,32.1,178.8,32z"/>
<path class="st0" d="M187.9,28.5c-1.5-0.5-1.8-3.4-1.8-5.8c0-1.6,0.1-3,0.2-3.4c0-0.7,0.7-1,1.4-1h0.1c0.6,0,1.3,0.3,1.3,0.9l0,0
	c0,0.8-0.3,3.6-0.3,5.8c0,1.6,0.2,3,0.9,3c1.6,0,2.9-5.1,3.8-7.5c0-0.1,0.2-0.2,0.3-0.2h0.2c0.1,0,0.1,0.2,0.1,0.3v0.1
	c-0.9,2.7-2.2,7.8-4.4,7.9h-0.6C188.6,28.6,188.2,28.6,187.9,28.5z M186.2,16.2c0,0,0-0.1,0.1-0.2l2.4-2.8c0.1-0.1,0.2-0.1,0.3-0.1
	c0.4,0,0.9,0.5,0.9,0.8c0,0.1,0,0.2-0.1,0.3c-0.9,0.9-2,1.8-2.8,2.5h-0.2C186.4,16.7,186.2,16.5,186.2,16.2z"/>
<path class="st0" d="M199.9,31.1c-1-0.6-1.3-3.4-1.3-5.8c0-1.3,0.1-2.5,0.1-3.3c-0.8,2.6-1.9,5.8-3.1,6h-0.3c-1.9,0-2.5-2.4-2.5-4.4
	v-1c0.3-2.3,1.4-6.2,4-6.2c0.9,0,1.8,0.6,2.4,1.4c0.2-1,0.3-1.6,1.5-1.6c0.6,0,1.2,0.3,1.2,1c0,0.9-0.8,6.2-0.8,10.4
	c0,0.8,0,1.6,0.1,2.1s0.2,0.8,0.3,0.8c1.1-0.3,2.7-4.1,3.5-5.8c0.9-1.9,1.9-3.9,3.5-5c1.9-1.4,5-1.9,8.4-1.9c5.4,0,11.6,1.2,15,1.8
	c4.5,0.8,8.9,1.6,12.6,1.6c3.7,0,6.3-0.9,8.3-3.2c0.2-0.2,0.4-0.3,0.6-0.3c0.3,0,0.6,0.2,0.6,0.6c0,0.2-0.1,0.4-0.3,0.7
	c-2,2.3-5.3,2.8-9,2.8c-3.9,0-8.4-0.8-13-1.7c-3.3-0.6-9.5-1.8-14.9-1.8c-3.3,0-6.2,0.4-7.9,1.7c-1.5,1.1-2.6,3.1-3.4,4.9
	c-0.8,1.7-2.4,5.7-3.8,6.1c-0.3,0.1-0.5,0.1-0.7,0.1C200.6,31.3,200.2,31.3,199.9,31.1z M199,18.9c-0.3-0.7-0.9-1.5-1.7-1.7
	c-0.9,0.5-2,6.4-2,9.1c0,0.5,0,0.9,0.1,1.1h0.1C196.7,27.4,198.5,20.3,199,18.9z"/>
</svg>
