<?xml version="1.0" encoding="utf-8"?>
<!-- Generator: Adobe Illustrator 24.2.1, SVG Export Plug-In . SVG Version: 6.00 Build 0)  -->
<svg version="1.1" id="Capa_1" xmlns="http://www.w3.org/2000/svg" xmlns:xlink="http://www.w3.org/1999/xlink" x="0px" y="0px"
	 viewBox="0 0 841.89 841.89" style="enable-background:new 0 0 841.89 841.89;" xml:space="preserve">
<style type="text/css">
	.st0{fill:#97ADA4;}
</style>
<g>
	<path class="st0" d="M59.86,835.2c33.95,0.74,61.45,0.78,88.05,0.83c31.64,0.05,64.37,0.11,108.96,1.3l9.88,0.27l0-0.05
		c18.18,0.4,37.04,0.6,57.42,0.6c42.44,0,85.49-0.86,127.12-1.7c42.64-0.86,86.73-1.75,131.26-1.75h2.39l0.07,2.62
		c44.62-1.2,77.36-1.25,109.02-1.3c28.45-0.05,57.87-0.1,95.3-1c18.65-0.45,33.78-15.97,33.71-34.6l-1.14-313.76l-47.14-45.34
		l-2.35-2.21c-19.99-16.1-35.79-21.06-54.08-26.8l-5.82-1.84c-8.88-2.84-18.04-3.09-26.13-3.32c-23.87-0.66-36.1-1.34-47.92-1.99
		c-10.72-0.59-21.85-1.2-41.44-1.8c-0.57-68.14-2.15-106.78-4.8-117.76C571.19,198.66,497.66,89.4,439.69,13.05l-7.08-9.32
		l-7.67,8.84C375.39,69.67,328.72,130.3,286.2,192.8c-14.88,21.87-28.9,43.57-36.95,68.58c-7.6,23.57-9.09,92.18-8.99,142.16
		c-16.77,0.55-27,1.11-36.86,1.65c-11.82,0.65-24.05,1.32-47.92,1.99c-8.09,0.23-17.25,0.48-26.13,3.32
		c-21.39,6.83-31.74,12.07-58.73,27.83l-50.66,48.36l-1.11,306.44C18.77,815.83,37.17,834.7,59.86,835.2z M788.87,816.02
		c-37.21,0.89-66.53,0.94-94.88,0.99c-29.94,0.05-60.97,0.11-101.95,1.13c-0.24-71.06,1.19-129.43,2.59-185.82
		c1.13-45.53,2.28-92.36,2.56-146.09l55.55,3.57c0.1,0.11,0.19,0.22,0.29,0.33l0.32-0.29l111.3,7.15
		c9.29,0.59,18.79,1.21,28.39,1.21c3.27,0,6.57-0.22,9.87-0.38l1.1,302.69C804.05,808.85,797.25,815.82,788.87,816.02z
		 M597.21,438.81l-0.02-4.76c-0.01-3.87-0.04-7.57-0.05-11.29c13.4,17.83,25.5,32.65,37.75,46.83l-37.62-2.42
		C597.28,457.94,597.26,448.5,597.21,438.81z M712.62,430.47c17.8,5.59,30.66,9.63,47.22,22.92l26.7,25.68
		c-6.92-0.19-13.85-0.62-20.67-1.06l-24.56-1.58c-18.54-15.59-36.38-32.44-53.11-50.17c6.41,0.2,12.89,0.55,18.51,2.35
		L712.62,430.47z M661.25,425.34l11.66,12.44c11.91,12.71,24.42,24.93,37.3,36.65l-48.48-3.11c-15.71-17.6-27.97-32.19-40.24-47.97
		c5.9,0.28,10.97,0.55,15.91,0.83C644.42,424.56,651.65,424.95,661.25,425.34z M60.28,816.18c-12.4-0.27-22.45-10.59-22.41-22.99
		l1.05-288.05l203.22-13.66c1.36,50.1,1.81,100.94,2.19,150.45c0.44,57.96,0.96,117.75,2.97,176.13c-39.77-0.96-70.03-1-99.37-1.05
		C121.43,816.97,94.03,816.92,60.28,816.18z M241.06,456.38c0.2,5.33,0.32,10.74,0.5,16.09l-40.22,2.7
		c12.88-14.7,25.34-29.71,39.11-47.79C240.61,440.87,240.87,451.27,241.06,456.38z M398.38,729.35c-0.57-7.86-0.84-16.52,3.19-19.87
		c1.43-1.19,3.84-2.02,6.24-2.74c8.46-2.55,17.22-3.94,26.06-4.11c6.34-0.19,8.77,0.98,9.66,1.94c1.66,1.78,1.86,6.82,1.97,9.53
		l0.57,13.77c1.2,28.47,2.13,51.58,0.23,89.65c-16.19,0.32-32.6,0.63-49.07,0.9C400.06,788.88,400.53,758.96,398.38,729.35z
		 M267.35,267.2c7.28-22.6,20.51-43.03,34.58-63.71c39.89-58.65,83.49-115.63,129.7-169.55c55.63,74.25,122.69,175.82,142.1,256.14
		c1.82,7.51,4.06,38.6,4.46,144.05l0.02,4.78c0.37,74.37-1.13,134.64-2.58,192.94c-1.39,55.9-2.82,113.61-2.62,183.86
		c-36.5,0.1-72.46,0.77-107.65,1.46c1.86-38.31,0.88-62.58-0.29-90.1l-0.57-13.72c-0.2-5.17-0.58-14.81-7.07-21.76
		c-6.95-7.44-17.02-8.14-23.93-7.98c-10.57,0.21-21.06,1.86-31.18,4.92c-4.11,1.24-8.85,2.96-12.91,6.33
		c-11.88,9.87-10.65,26.78-10,35.86c2.12,29.24,1.62,58.79-1.3,87.96c-18,0.24-36.04,0.45-53.95,0.45c-20.47,0-39.42-0.2-57.65-0.6
		l-5.08-415.64l-2.2,0.06C259.16,351.77,260.94,287.08,267.35,267.2z M204.45,424.17c4.72-0.26,9.53-0.52,15.09-0.79
		c-13.47,17.33-26.93,33.23-45.28,53.61l-46.66,3.14c11.4-11.16,22.66-23.13,33.03-34.27l19.16-20.48
		C189.81,424.97,197.23,424.57,204.45,424.17z M81.2,454.17c25.22-14.71,34.41-19.33,53.95-25.57c5.4-1.73,11.6-2.12,17.76-2.32
		l-6.19,6.62c-13.58,14.58-28.68,30.79-43.34,44.07l-0.19-0.32c-1.55,0.96-2.89,2.32-5.32,4.84c-0.26,0.27-0.39,0.43-0.62,0.67
		l-48.54,3.26L81.2,454.17z"/>
	<path class="st0" d="M411.94,239.66c0.76,39.43,0.75,80.63-0.14,116.19l19.01,0.47c0.9-35.84,0.91-77.39,0.14-117.14
		c16.19-0.51,31.67-1.23,44.85-2.13l-1.29-18.97c-12.92,0.88-28.13,1.58-44.01,2.09c-0.5-18.96-1.15-37.28-2-53.93l-18.99,0.97
		c0.84,16.51,1.49,34.67,1.98,53.46c-14.95,0.3-30,0.42-43.97,0.29l-0.16,19.02c3.75,0.03,7.58,0.05,11.47,0.05
		C389.61,240.02,400.8,239.89,411.94,239.66z"/>
	<path class="st0" d="M437.92,490.73c-3.97-1.8-8.73-3.79-13.89-4.88c-9.37-1.96-19.36-0.69-27.47,3.58
		c-11.43,6.03-19.63,18.27-21.39,31.95c-1.53,11.92,1.58,24.6,8.77,35.71c3,4.63,6.19,8.15,9.76,10.74
		c8.32,6.06,18.25,7.09,27.75,7.31l2.68,0.03c7.13,0,16.29-0.72,23.89-6.37c9.75-7.24,12.54-19.24,13.79-27.64
		c2.79-18.78-0.67-32.91-10.3-42C447.2,495.09,442.23,492.67,437.92,490.73z M443,538.36c-1.19,8.04-3.19,12.86-6.31,15.17
		c-3.13,2.33-8.35,2.62-12.55,2.62l-2.26-0.02c-6.4-0.15-12.89-0.69-16.99-3.67c-1.64-1.2-3.27-3.06-4.98-5.7
		c-4.68-7.23-6.82-15.6-5.87-22.95c0.97-7.53,5.45-14.42,11.41-17.56c2.86-1.51,6.24-2.31,9.78-2.31c1.64,0,3.28,0.17,4.89,0.51
		c3.36,0.71,6.77,2.14,9.97,3.6c2.92,1.31,6.22,2.89,8.38,4.94C444.48,518.68,444.25,529.93,443,538.36z"/>
	<path class="st0" d="M517.38,660.51c0.97,0.06,1.95,0.12,2.92,0.12c2.09,0,3.96-0.22,5.7-0.69c3.68-0.97,7.15-3.11,10.3-6.32
		c6.31-6.44,9.8-15.35,9.58-24.45c-0.21-8.89-4.02-17.6-10.42-23.87c-2.32-2.27-4.8-4.05-7.38-5.29c-8.37-4.02-19.29-2.7-27.22,3.19
		c-6.3,4.68-10.94,12.06-13.07,20.78c-2.48,10.13-0.74,19.72,4.76,26.29C499.39,658.44,510.01,660.03,517.38,660.51z M506.26,628.48
		c1.09-4.43,3.19-7.99,5.94-10.03c1.53-1.13,3.5-1.81,5.28-1.81c0.9,0,1.69,0.17,2.37,0.49c0.7,0.34,1.48,0.92,2.31,1.73
		c2.86,2.8,4.63,6.82,4.73,10.76c0.09,3.93-1.46,7.92-4.16,10.69c-1.04,1.06-1.57,1.24-1.58,1.24c-0.01,0.01-1.29,0.07-2.49-0.02
		c-6.12-0.4-9.89-1.54-11.52-3.48C505.6,636.23,505.26,632.56,506.26,628.48z"/>
	<path class="st0" d="M322.92,660.51c0.97,0.06,1.95,0.12,2.92,0.12c2.09,0,3.96-0.23,5.7-0.69c3.69-0.97,7.15-3.11,10.31-6.32
		c6.31-6.45,9.8-15.36,9.58-24.45c-0.21-8.89-4.02-17.6-10.42-23.87c-2.31-2.27-4.8-4.05-7.38-5.29
		c-8.37-4.03-19.29-2.69-27.22,3.19c-6.3,4.68-10.94,12.06-13.07,20.78c-2.48,10.14-0.74,19.73,4.75,26.29
		C304.93,658.44,315.54,660.03,322.92,660.51z M311.8,628.48c1.09-4.43,3.19-7.99,5.94-10.03c1.53-1.13,3.5-1.81,5.28-1.81
		c0.9,0,1.69,0.17,2.37,0.49c0.71,0.34,1.49,0.92,2.31,1.73c2.86,2.8,4.63,6.82,4.73,10.76c0.09,3.93-1.46,7.92-4.16,10.69
		c-1.04,1.06-1.58,1.24-1.59,1.24c-0.03,0-1.31,0.06-2.48-0.02c-6.12-0.4-9.89-1.54-11.52-3.48
		C311.13,636.23,310.8,632.56,311.8,628.48z"/>
	<path class="st0" d="M188.54,591.34l-89.42,2.64l-0.91,8.22c-2.83,25.7-2.45,51.72,1.16,77.35l0.88,6.26l6.11,1.61
		c7.54,1.99,15.35,3,23.2,3c5.6,0,11.22-0.52,16.68-1.54c2.43-0.45,4.87-1.01,7.33-1.57c7.48-1.7,14.55-3.08,19.62-1.51l10.93,3.39
		l1.33-11.37c2.98-25.45,4.12-51.35,3.38-76.97L188.54,591.34z M167.57,666.03c-6.39,0.02-12.42,1.4-18.25,2.73
		c-2.2,0.5-4.41,1.01-6.59,1.42c-8.3,1.55-17.03,1.62-25.38,0.18c-2.26-19.21-2.6-38.61-1.03-57.87l53.67-1.58
		C170.17,629.28,169.36,647.75,167.57,666.03z"/>
	<path class="st0" d="M744.25,598.83l-0.75-7.61l-7.59-0.91c-15.53-1.85-27.44-2.64-39.81-2.64c-9.85,0-20.16,0.49-35.58,1.7
		l-8.77,0.68v8.8c0,24.22,0.68,48.82,2.04,73.11c0.12,2.15,0.41,7.18,4.47,10.99c3.23,3.01,7.05,3.52,8.9,3.77
		c13.76,1.84,24.71,2.66,35.53,2.66c12.31,0,24.17-1.06,38.19-2.67l8.7-0.99l-0.27-8.75C748.49,650.97,746.79,624.68,744.25,598.83z
		 M672.63,668.25c-1.09-20.12-1.7-40.44-1.84-60.56c10.25-0.7,17.95-0.99,25.31-0.99c9.5,0,18.78,0.51,29.95,1.66
		c1.83,20.03,3.15,40.29,3.94,60.42C710.34,670.78,695.89,671.2,672.63,668.25z"/>
</g>
</svg>
